<svg id="レイヤー_1" data-name="レイヤー 1" xmlns="http://www.w3.org/2000/svg" viewBox="0 0 36 54"><polygon points="31.12 3.19 31.12 3.19 28.12 5.96 11.56 5.96 9.04 3.19 9.04 3.19 12.04 0.43 28.6 0.43 31.12 3.19"/><polygon points="6.2 26.14 6.2 26.14 3.68 23.38 5.13 6.82 8.13 4.06 8.13 4.06 10.65 6.82 9.2 23.38 6.2 26.14"/><polygon points="30.01 26.02 30.01 26.02 27.49 23.26 28.94 6.7 31.94 3.94 31.94 3.94 34.46 6.7 33.01 23.26 30.01 26.02"/><polygon points="29.01 27 29.01 27 26.01 29.76 9.45 29.76 6.93 27 6.93 27 9.93 24.24 26.49 24.24 29.01 27"/><polygon points="4.09 49.94 4.09 49.94 1.57 47.18 3.02 30.62 6.02 27.86 6.02 27.86 8.54 30.62 7.09 47.18 4.09 49.94"/><polygon points="27.9 49.82 27.9 49.82 25.38 47.06 26.83 30.5 29.83 27.74 29.83 27.74 32.35 30.5 30.9 47.06 27.9 49.82"/><polygon points="26.95 50.8 26.95 50.8 23.95 53.56 7.39 53.56 4.87 50.8 4.87 50.8 7.87 48.05 24.43 48.05 26.95 50.8"/></svg>