<?xml version="1.0" encoding="UTF-8"?><svg xmlns="http://www.w3.org/2000/svg" viewBox="0 0 108 108"><defs><style>.d{fill:#101010;}.e{fill:#ff1744;}</style></defs><g id="a"><g><g><polygon class="e" points="50.22 37.64 50.22 37.64 48.12 39.57 36.53 39.57 34.76 37.64 34.76 37.64 36.86 35.71 48.46 35.71 50.22 37.64"/><polygon class="d" points="32.78 53.7 32.78 53.7 31.01 51.76 32.03 40.17 34.13 38.24 34.13 38.24 35.89 40.17 34.88 51.76 32.78 53.7"/><polygon class="e" points="49.45 53.61 49.45 53.61 47.69 51.68 48.7 40.09 50.8 38.16 50.8 38.16 52.57 40.09 51.55 51.68 49.45 53.61"/><polygon class="e" points="48.74 54.31 48.74 54.31 46.64 56.24 35.05 56.24 33.29 54.31 33.29 54.31 35.39 52.37 46.98 52.37 48.74 54.31"/><polygon class="e" points="31.3 70.36 31.3 70.36 29.53 68.43 30.55 56.84 32.65 54.91 32.65 54.91 34.41 56.84 33.4 68.43 31.3 70.36"/><polygon class="d" points="47.97 70.28 47.97 70.28 46.21 68.35 47.22 56.76 49.32 54.82 49.32 54.82 51.08 56.76 50.07 68.35 47.97 70.28"/><polygon class="e" points="47.31 70.97 47.31 70.97 45.2 72.9 33.61 72.9 31.85 70.97 31.85 70.97 33.95 69.03 45.54 69.03 47.31 70.97"/></g><g><polygon class="e" points="76.12 37.64 76.12 37.64 74.02 39.57 62.43 39.57 60.66 37.64 60.66 37.64 62.76 35.71 74.36 35.71 76.12 37.64"/><polygon class="d" points="58.68 53.7 58.68 53.7 56.91 51.76 57.93 40.17 60.03 38.24 60.03 38.24 61.79 40.17 60.78 51.76 58.68 53.7"/><polygon class="e" points="75.35 53.61 75.35 53.61 73.59 51.68 74.6 40.09 76.7 38.16 76.7 38.16 78.47 40.09 77.45 51.68 75.35 53.61"/><polygon class="e" points="74.64 54.31 74.64 54.31 72.54 56.24 60.95 56.24 59.19 54.31 59.19 54.31 61.29 52.37 72.88 52.37 74.64 54.31"/><polygon class="e" points="57.2 70.36 57.2 70.36 55.43 68.43 56.45 56.84 58.55 54.91 58.55 54.91 60.31 56.84 59.3 68.43 57.2 70.36"/><polygon class="d" points="73.87 70.28 73.87 70.28 72.11 68.35 73.12 56.76 75.22 54.82 75.22 54.82 76.98 56.76 75.97 68.35 73.87 70.28"/><polygon class="e" points="73.21 70.97 73.21 70.97 71.1 72.9 59.51 72.9 57.75 70.97 57.75 70.97 59.85 69.03 71.44 69.03 73.21 70.97"/></g></g></g><g id="b"/><g id="c"/></svg>