<?xml version="1.0" encoding="UTF-8"?><svg xmlns="http://www.w3.org/2000/svg" viewBox="0 0 90 90"><defs><style>.d,.e{stroke:#000;stroke-miterlimit:10;stroke-width:.5px;}.e{fill:none;}</style></defs><g id="a"/><g id="b"/><g id="c"><g><g><polygon class="d" points="41.98 31.67 41.98 31.67 40.3 33.21 31.02 33.21 29.61 31.67 29.61 31.67 31.29 30.12 40.56 30.12 41.98 31.67"/><polygon class="e" points="28.02 44.52 28.02 44.52 26.61 42.97 27.42 33.7 29.1 32.15 29.1 32.15 30.51 33.7 29.7 42.97 28.02 44.52"/><polygon class="d" points="41.36 44.45 41.36 44.45 39.95 42.9 40.76 33.63 42.44 32.08 42.44 32.08 43.85 33.63 43.04 42.9 41.36 44.45"/><polygon class="d" points="40.79 45 40.79 45 39.11 46.55 29.84 46.55 28.43 45 28.43 45 30.11 43.46 39.38 43.46 40.79 45"/><polygon class="d" points="26.84 57.85 26.84 57.85 25.43 56.3 26.24 47.03 27.92 45.48 27.92 45.48 29.33 47.03 28.52 56.3 26.84 57.85"/><polygon class="e" points="40.17 57.78 40.17 57.78 38.77 56.24 39.57 46.96 41.26 45.42 41.26 45.42 42.66 46.96 41.86 56.24 40.17 57.78"/><polygon class="d" points="39.65 58.33 39.65 58.33 37.96 59.88 28.69 59.88 27.28 58.33 27.28 58.33 28.96 56.79 38.24 56.79 39.65 58.33"/></g><g><polygon class="d" points="62.7 31.67 62.7 31.67 61.02 33.21 51.74 33.21 50.33 31.67 50.33 31.67 52.01 30.12 61.28 30.12 62.7 31.67"/><polygon class="e" points="48.74 44.52 48.74 44.52 47.33 42.97 48.14 33.7 49.82 32.15 49.82 32.15 51.23 33.7 50.42 42.97 48.74 44.52"/><polygon class="d" points="62.08 44.45 62.08 44.45 60.67 42.9 61.48 33.63 63.16 32.08 63.16 32.08 64.57 33.63 63.76 42.9 62.08 44.45"/><polygon class="d" points="61.51 45 61.51 45 59.83 46.55 50.56 46.55 49.15 45 49.15 45 50.83 43.46 60.1 43.46 61.51 45"/><polygon class="d" points="47.56 57.85 47.56 57.85 46.15 56.3 46.96 47.03 48.64 45.48 48.64 45.48 50.05 47.03 49.24 56.3 47.56 57.85"/><polygon class="e" points="60.89 57.78 60.89 57.78 59.49 56.24 60.29 46.96 61.98 45.42 61.98 45.42 63.38 46.96 62.58 56.24 60.89 57.78"/><polygon class="d" points="60.37 58.33 60.37 58.33 58.68 59.88 49.41 59.88 48 58.33 48 58.33 49.68 56.79 58.96 56.79 60.37 58.33"/></g></g></g></svg>