<?xml version="1.0" encoding="UTF-8"?><svg xmlns="http://www.w3.org/2000/svg" viewBox="0 0 48 48"><defs><style>.d{fill:#101010;}.e{fill:#ff1744;}</style></defs><g id="a"/><g id="b"><circle cx="24" cy="24" r="24"/><g><g><polygon class="e" points="21.73 14 21.73 14 20.47 15.16 13.52 15.16 12.46 14 12.46 14 13.72 12.84 20.67 12.84 21.73 14"/><polygon class="d" points="11.27 23.64 11.27 23.64 10.21 22.48 10.82 15.52 12.08 14.36 12.08 14.36 13.13 15.52 12.53 22.48 11.27 23.64"/><polygon class="e" points="21.27 23.59 21.27 23.59 20.21 22.43 20.82 15.47 22.08 14.31 22.08 14.31 23.14 15.47 22.53 22.43 21.27 23.59"/><polygon class="e" points="20.85 24 20.85 24 19.59 25.16 12.63 25.16 11.57 24 11.57 24 12.83 22.84 19.79 22.84 20.85 24"/><polygon class="e" points="10.38 33.64 10.38 33.64 9.32 32.48 9.93 25.52 11.19 24.36 11.19 24.36 12.25 25.52 11.64 32.48 10.38 33.64"/><polygon class="d" points="20.38 33.59 20.38 33.59 19.33 32.43 19.93 25.47 21.19 24.31 21.19 24.31 22.25 25.47 21.64 32.43 20.38 33.59"/><polygon class="e" points="19.98 34 19.98 34 18.72 35.16 11.77 35.16 10.71 34 10.71 34 11.97 32.84 18.93 32.84 19.98 34"/></g><g><polygon class="e" points="37.27 14 37.27 14 36.01 15.16 29.06 15.16 28 14 28 14 29.26 12.84 36.21 12.84 37.27 14"/><polygon class="d" points="26.81 23.64 26.81 23.64 25.75 22.48 26.36 15.52 27.62 14.36 27.62 14.36 28.67 15.52 28.07 22.48 26.81 23.64"/><polygon class="e" points="36.81 23.59 36.81 23.59 35.75 22.43 36.36 15.47 37.62 14.31 37.62 14.31 38.68 15.47 38.07 22.43 36.81 23.59"/><polygon class="e" points="36.39 24 36.39 24 35.13 25.16 28.17 25.16 27.11 24 27.11 24 28.37 22.84 35.33 22.84 36.39 24"/><polygon class="e" points="25.92 33.64 25.92 33.64 24.86 32.48 25.47 25.52 26.73 24.36 26.73 24.36 27.79 25.52 27.18 32.48 25.92 33.64"/><polygon class="d" points="35.92 33.59 35.92 33.59 34.87 32.43 35.47 25.47 36.73 24.31 36.73 24.31 37.79 25.47 37.18 32.43 35.92 33.59"/><polygon class="e" points="35.52 34 35.52 34 34.26 35.16 27.31 35.16 26.25 34 26.25 34 27.51 32.84 34.47 32.84 35.52 34"/></g></g></g><g id="c"/></svg>