<?xml version="1.0" encoding="UTF-8"?>
<svg id="_レイヤー_1" data-name="レイヤー 1" xmlns="http://www.w3.org/2000/svg" viewBox="0 0 36 54">
    <path
        d="M12.96,23.75h4.34c2.19-.02,3.92-.59,5.2-1.7s1.92-2.72,1.92-4.83-.53-3.61-1.6-4.73c-1.06-1.12-2.69-1.68-4.88-1.68-1.91,0-3.49.55-4.72,1.66-1.23,1.1-1.85,2.54-1.85,4.32h-7.12c0-2.19.58-4.18,1.74-5.98,1.16-1.8,2.78-3.2,4.86-4.2,2.08-1.01,4.41-1.51,6.99-1.51,4.26,0,7.6,1.07,10.03,3.21s3.65,5.11,3.65,8.92c0,1.91-.61,3.72-1.83,5.41-1.22,1.69-2.8,2.96-4.73,3.82,2.34.8,4.13,2.06,5.35,3.78,1.22,1.72,1.83,3.77,1.83,6.15,0,3.83-1.31,6.88-3.94,9.14s-6.08,3.4-10.36,3.4-7.46-1.09-10.08-3.28-3.93-5.1-3.93-8.73h7.12c0,1.88.63,3.4,1.89,4.57s2.95,1.76,5.08,1.76,3.95-.59,5.21-1.76,1.9-2.87,1.9-5.1-.66-3.97-1.99-5.19-3.3-1.82-5.92-1.82h-4.19v-5.62Z" />
</svg>
