<?xml version="1.0" encoding="UTF-8"?>
<svg id="_レイヤー_1" data-name="レイヤー 1" xmlns="http://www.w3.org/2000/svg" viewBox="0 0 36 54">
    <path
        d="M32.75,48.62H4.07v-4.89l14.21-15.5c2.05-2.29,3.51-4.19,4.38-5.73.87-1.53,1.3-3.07,1.3-4.61,0-2.03-.57-3.67-1.71-4.92-1.14-1.25-2.68-1.88-4.61-1.88-2.3,0-4.09.7-5.36,2.11s-1.9,3.33-1.9,5.77H3.25c0-2.6.59-4.94,1.77-7.02s2.87-3.7,5.07-4.85c2.2-1.15,4.73-1.73,7.6-1.73,4.14,0,7.41,1.04,9.8,3.12s3.59,4.96,3.59,8.63c0,2.13-.6,4.36-1.8,6.69s-3.17,4.98-5.9,7.95l-10.43,11.16h19.8v5.68Z" />
</svg>
