<?xml version="1.0" encoding="UTF-8"?>
<svg id="_レイヤー_1" data-name="レイヤー 1" xmlns="http://www.w3.org/2000/svg" viewBox="0 0 36 54">
    <path
        d="M31.04,16.92c0,2.09-.54,3.95-1.61,5.58-1.07,1.63-2.54,2.92-4.39,3.85,2.23,1.04,3.94,2.45,5.14,4.25s1.8,3.83,1.8,6.09c0,3.75-1.27,6.72-3.81,8.92s-5.92,3.3-10.14,3.3-7.63-1.1-10.18-3.31-3.82-5.18-3.82-8.91c0-2.29.61-4.34,1.82-6.15s2.91-3.21,5.1-4.19c-1.84-.94-3.29-2.22-4.35-3.85-1.06-1.63-1.6-3.49-1.6-5.58,0-3.63,1.17-6.51,3.52-8.64,2.34-2.13,5.51-3.19,9.49-3.19s7.18,1.06,9.52,3.19c2.34,2.13,3.52,5.01,3.52,8.64ZM24.86,36.35c0-2.11-.63-3.81-1.89-5.11s-2.92-1.95-5-1.95-3.73.64-4.97,1.93-1.86,3-1.86,5.13.61,3.76,1.83,5.01,2.91,1.88,5.05,1.88,3.82-.61,5.02-1.82,1.8-2.9,1.8-5.07ZM23.95,17.19c0-1.86-.54-3.38-1.61-4.58s-2.52-1.8-4.34-1.8-3.25.57-4.31,1.71-1.58,2.7-1.58,4.67.53,3.51,1.6,4.66c1.06,1.15,2.5,1.73,4.32,1.73s3.26-.58,4.32-1.73c1.06-1.15,1.6-2.71,1.6-4.66Z" />
</svg>
