<?xml version="1.0" encoding="UTF-8"?>
<svg id="_レイヤー_1" data-name="レイヤー 1" xmlns="http://www.w3.org/2000/svg" viewBox="0 0 36 54">
    <path
        d="M31.96,30.37c0,6.13-1.15,10.76-3.44,13.87s-5.79,4.67-10.47,4.67-8.08-1.52-10.42-4.56-3.53-7.53-3.59-13.49v-7.38c0-6.13,1.15-10.73,3.44-13.8,2.29-3.07,5.8-4.6,10.5-4.6s8.15,1.49,10.44,4.48,3.47,7.46,3.53,13.42v7.38ZM24.84,22.4c0-4-.55-6.94-1.64-8.8-1.09-1.86-2.83-2.8-5.21-2.8s-4.03.88-5.13,2.65c-1.09,1.77-1.67,4.53-1.73,8.28v9.67c0,3.98.56,6.95,1.67,8.91s2.86,2.93,5.24,2.93,3.97-.9,5.07-2.71,1.67-4.63,1.73-8.48v-9.64Z" />
</svg>
