<?xml version="1.0" encoding="UTF-8"?>
<svg id="_レイヤー_1" data-name="レイヤー 1" xmlns="http://www.w3.org/2000/svg" viewBox="0 0 36 54">
    <path
        d="M5.36,26.88L7.67,5.38h22.91v6.15H13.59l-1.17,10.2c1.97-1.13,4.2-1.7,6.68-1.7,4.06,0,7.22,1.3,9.48,3.9,2.26,2.6,3.38,6.09,3.38,10.49s-1.25,7.79-3.75,10.36-5.93,3.85-10.28,3.85c-3.91,0-7.14-1.11-9.71-3.33s-3.96-5.14-4.17-8.77h6.88c.27,2.07,1.02,3.66,2.23,4.76s2.79,1.66,4.75,1.66c2.19,0,3.89-.78,5.11-2.34s1.83-3.69,1.83-6.39-.67-4.65-2.02-6.17c-1.35-1.51-3.2-2.27-5.57-2.27-1.29,0-2.38.17-3.28.51-.9.34-1.88,1.01-2.93,2.01l-5.68-1.41Z" />
</svg>
